<?xml version="1.0" encoding="utf-8"?>
<!-- Generator: Adobe Illustrator 17.0.1, SVG Export Plug-In . SVG Version: 6.00 Build 0)  -->
<!DOCTYPE svg PUBLIC "-//W3C//DTD SVG 1.1//EN" "http://www.w3.org/Graphics/SVG/1.1/DTD/svg11.dtd">
<svg version="1.1" id="Слой_1" xmlns="http://www.w3.org/2000/svg" xmlns:xlink="http://www.w3.org/1999/xlink" x="0px" y="0px"
	 width="248.027px" height="217.024px" viewBox="173.626 33.218 248.027 217.024"
	 enable-background="new 173.626 33.218 248.027 217.024" xml:space="preserve">
<path fill="#444444" d="M182.484,73.08h230.311c4.892,0,8.858-3.966,8.858-8.858V42.076c0-4.892-3.966-8.858-8.858-8.858H182.484
	c-4.892,0-8.858,3.966-8.858,8.858v22.145C173.626,69.114,177.592,73.08,182.484,73.08z M182.484,161.661h230.311
	c4.892,0,8.858-3.966,8.858-8.858v-22.145c0-4.892-3.966-8.858-8.858-8.858H182.484c-4.892,0-8.858,3.966-8.858,8.858v22.145
	C173.626,157.695,177.592,161.661,182.484,161.661z M182.484,250.242h230.311c4.892,0,8.858-3.966,8.858-8.858v-22.145
	c0-4.892-3.966-8.858-8.858-8.858H182.484c-4.892,0-8.858,3.966-8.858,8.858v22.145
	C173.626,246.276,177.592,250.242,182.484,250.242z"/>
</svg>
